<svg width="42" height="54" viewBox="0 0 42 54" fill="none" xmlns="http://www.w3.org/2000/svg">
<path d="M9.91793 16.2776L1.77147 7.56469C1.15189 6.90203 0.0410156 7.34046 0.0410156 8.24765V52.3805C0.0410156 53.3038 1.18538 53.7339 1.79348 53.0391L9.93994 43.7321C10.0995 43.5498 10.1875 43.3158 10.1875 43.0735V16.9606C10.1875 16.707 10.0911 16.4629 9.91793 16.2776Z" fill="black"/>
<path d="M32.7224 0.0412598H2.29993C1.43205 0.0412598 0.976174 1.07104 1.55964 1.71354L10.7182 11.7987C10.9077 12.0075 11.1765 12.1265 11.4585 12.1265H28.1821C28.4593 12.1265 28.7242 12.2416 28.9133 12.4443L31.189 14.8838C31.7853 15.5231 31.332 16.5659 30.4578 16.5659H14.5006C13.9483 16.5659 13.5006 17.0136 13.5006 17.5659V38.6818C13.5006 39.5909 14.6153 40.0284 15.2336 39.362L21.9008 32.1772C22.0901 31.9733 22.3557 31.8574 22.6339 31.8574H32.7142C33.0051 31.8574 33.2816 31.7307 33.4715 31.5104L40.7984 23.0133C40.9549 22.8317 41.041 22.6 41.041 22.3602V9.29953C41.041 9.05513 40.9515 8.81919 40.7894 8.63628L33.4708 0.378012C33.281 0.163851 33.0085 0.0412598 32.7224 0.0412598Z" fill="black"/>
<path d="M9.91793 16.2776L1.77147 7.56469C1.15189 6.90203 0.0410156 7.34046 0.0410156 8.24765V52.3805C0.0410156 53.3038 1.18538 53.7339 1.79348 53.0391L9.93994 43.7321C10.0995 43.5498 10.1875 43.3158 10.1875 43.0735V16.9606C10.1875 16.707 10.0911 16.4629 9.91793 16.2776Z" stroke="black" stroke-width="0.0824916"/>
<path d="M32.7224 0.0412598H2.29993C1.43205 0.0412598 0.976174 1.07104 1.55964 1.71354L10.7182 11.7987C10.9077 12.0075 11.1765 12.1265 11.4585 12.1265H28.1821C28.4593 12.1265 28.7242 12.2416 28.9133 12.4443L31.189 14.8838C31.7853 15.5231 31.332 16.5659 30.4578 16.5659H14.5006C13.9483 16.5659 13.5006 17.0136 13.5006 17.5659V38.6818C13.5006 39.5909 14.6153 40.0284 15.2336 39.362L21.9008 32.1772C22.0901 31.9733 22.3557 31.8574 22.6339 31.8574H32.7142C33.0051 31.8574 33.2816 31.7307 33.4715 31.5104L40.7984 23.0133C40.9549 22.8317 41.041 22.6 41.041 22.3602V9.29953C41.041 9.05513 40.9515 8.81919 40.7894 8.63628L33.4708 0.378012C33.281 0.163851 33.0085 0.0412598 32.7224 0.0412598Z" stroke="black" stroke-width="0.0824916"/>
</svg>
