<svg width="24" height="24" viewBox="0 0 24 24" fill="none" xmlns="http://www.w3.org/2000/svg">
<path d="M3 5.5C3 4.67157 3.67157 4 4.5 4H19.5C20.3284 4 21 4.67157 21 5.5C21 6.32843 20.3284 7 19.5 7H4.5C3.67157 7 3 6.32843 3 5.5ZM3 12.5C3 11.6716 3.67157 11 4.5 11H13.5C14.3284 11 15 11.6716 15 12.5C15 13.3284 14.3284 14 13.5 14H4.5C3.67157 14 3 13.3284 3 12.5ZM3 19.5C3 18.6716 3.67157 18 4.5 18H19.5C20.3284 18 21 18.6716 21 19.5C21 20.3284 20.3284 21 19.5 21H4.5C3.67157 21 3 20.3284 3 19.5Z" fill="black"/>
</svg>
